<?xml version="1.0" encoding="UTF-8"?>
<svg id="Layer_2" data-name="Layer 2" xmlns="http://www.w3.org/2000/svg" viewBox="0 0 42 50.83">
  <defs>
    <style>
      .cls-1 {
        fill: #010101;
      }
    </style>
  </defs>
  <g id="Layer_1-2" data-name="Layer 1">
    <path class="cls-1" d="m0,50.83V15.17l17.83,17.83L0,50.83Zm4-26v16.34l8.17-8.17-8.17-8.17Z"/>
    <polygon class="cls-1" points="42 17 42 49 26 33 42 17"/>
    <g>
      <path class="cls-1" d="m3,11.92c-.45,0-.9-.15-1.27-.45-.85-.7-.98-1.96-.27-2.82C5.91,3.23,12.49.12,19.5.12s13.56,3.09,18.01,8.49c.7.85.58,2.11-.27,2.82-.85.7-2.11.58-2.81-.27-3.69-4.47-9.14-7.04-14.93-7.04s-11.26,2.58-14.95,7.07c-.4.48-.97.73-1.55.73Z"/>
      <path class="cls-1" d="m40,14h-11c-1.1,0-2-.9-2-2s.9-2,2-2h7V2c0-1.1.9-2,2-2s2,.9,2,2v12Z"/>
    </g>
  </g>
</svg>